<?xml version="1.0" encoding="UTF-8"?><svg id="a" xmlns="http://www.w3.org/2000/svg" viewBox="0 0 392.2 115.37"><polygon points="50.61 .71 60.13 0 60.13 56.45 50.61 56.45 50.61 .71"/><polygon points="55.78 6.92 59.94 0 74.45 7.81 59.76 9.66 55.78 6.92"/><g><path d="M60.1,17.98V91.62h-9.38V59.02H9.37v32.6H0V19.44l9.37-1.46V50.06H50.73V19.44l9.38-1.46Z"/><path d="M102.09,91.62l-.31-3.02c-3.02,2.6-7.08,4.17-11.56,4.17-9.69,0-17.29-7.5-17.29-16.87s7.6-16.77,17.4-16.77c4.06,0,7.71,1.25,10.83,3.85v-2.5c0-5.94-2.71-8.75-9.9-8.75-3.44,0-7.19,.73-11.25,2.08l1.46-7.6c3.54-1.15,7.08-1.67,10.52-1.67,11.56,0,17.71,5.52,17.71,15.21v23.12l.42,8.75h-8.02Zm-10.62-25.62c-5.73,0-10.21,4.27-10.21,9.9s4.48,9.79,10.21,9.79,10.31-4.37,10.31-9.79-4.58-9.9-10.31-9.9Z"/><path d="M148.23,53.19c-10.31,0-15.42,5-15.42,15v23.44h-8.75V46.1l8.33-1.35v7.6c3.23-5.1,8.44-7.71,15.83-7.71v8.54Z"/><path d="M225.11,91.62h-8.75v-27.81c0-7.4-3.85-11.56-9.69-11.56-6.35,0-10.73,4.9-10.73,12.5v26.87h-8.75v-27.81c0-7.4-3.85-11.56-9.69-11.56-6.25,0-10.83,4.9-10.83,12.5v26.87h-8.75V46.1l8.33-1.35v6.04c3.02-4.17,7.71-6.46,13.12-6.46,6.15,0,10.94,2.81,13.75,8.12,3.23-5.1,8.65-8.12,15.21-8.12,9.9,0,16.77,6.98,16.77,18.54v28.75Z"/><path d="M260.64,44.33c13.85,0,24.79,10.83,24.79,24.27s-10.94,24.17-24.79,24.17-24.69-10.73-24.69-24.17,10.94-24.27,24.69-24.27Zm0,7.92c-9.06,0-15.94,7.08-15.94,16.25s6.87,16.35,15.94,16.35,16.04-7.08,16.04-16.35-7.08-16.25-16.04-16.25Z"/><path d="M337.82,91.62h-8.75v-27.08c0-7.81-4.37-12.29-11.14-12.29-7.19,0-12.29,5.21-12.29,13.23v26.14h-8.75V46.1l8.33-1.35v6.15c3.44-4.17,8.65-6.56,14.58-6.56,10.62,0,18.02,7.29,18.02,19.37v27.92Z"/><path d="M392.2,45.48l-33.54,69.89h-9.58l14.79-29.27-19.37-40.62h9.58l14.27,31.46,14.27-31.46h9.58Z"/></g></svg>